<svg width="23" height="25" viewBox="0 0 23 25" fill="none" xmlns="http://www.w3.org/2000/svg">
<path d="M10.3358 24.3732L8.23893 23.5435C8.01893 23.4591 7.89518 23.145 7.95706 22.845L12.6492 0.804416C12.7111 0.504416 12.9414 0.335666 13.1614 0.420041L15.2583 1.24973C15.4783 1.3341 15.602 1.64817 15.5402 1.94817L10.848 23.9888C10.7827 24.2888 10.5558 24.4622 10.3358 24.3732ZM6.41706 19.1138L7.91237 16.9388C8.0705 16.7091 8.06018 16.3435 7.88487 16.1325L4.7705 12.3966L7.88487 8.66067C8.06018 8.44973 8.07393 8.0841 7.91237 7.85442L6.41706 5.67942C6.26237 5.45442 6.00112 5.44035 5.83269 5.65598L0.879256 11.9841C0.703944 12.2044 0.703944 12.5841 0.879256 12.8044L5.83269 19.1372C6.00112 19.3529 6.26237 19.3435 6.41706 19.1138ZM17.6645 19.1419L22.618 12.8091C22.7933 12.5888 22.7933 12.2091 22.618 11.9888L17.6645 5.65129C17.4995 5.44035 17.2383 5.44973 17.0802 5.67473L15.5849 7.84973C15.4267 8.07942 15.437 8.44504 15.6124 8.65598L18.7267 12.3966L15.6124 16.1325C15.437 16.3435 15.4233 16.7091 15.5849 16.9388L17.0802 19.1138C17.2349 19.3435 17.4961 19.3529 17.6645 19.1419Z" fill="black"/>
</svg>
