<svg width="121" height="80" viewBox="0 0 121 80" fill="none" xmlns="http://www.w3.org/2000/svg">
<path d="M59.8005 80C59.4034 80 59.0064 79.8775 58.6472 79.6735L55.0172 77.3468C54.4689 77.0203 54.7336 76.8978 54.9227 76.8366C55.6411 76.5713 55.7923 76.5101 56.5675 76.0203C56.6431 75.9794 56.7566 75.9999 56.8322 76.0407L59.6303 77.8367C59.7248 77.8979 59.8761 77.8979 59.9706 77.8367L70.8984 71.0201C70.993 70.9588 71.0686 70.8364 71.0686 70.6935V57.0808C71.0686 56.9379 71.0119 56.8155 70.8984 56.7542L59.9706 49.9581C59.8761 49.8968 59.7438 49.8968 59.6303 49.9581L48.7025 56.7542C48.5891 56.8155 48.5323 56.9583 48.5323 57.0808V70.6935C48.5323 70.816 48.608 70.9384 48.7025 70.9997L51.6897 72.8569C53.3156 73.7345 54.3177 72.6936 54.3177 71.6732V58.2237C54.3177 58.04 54.45 57.8767 54.6391 57.8767H56.0192C56.1894 57.8767 56.3406 58.0196 56.3406 58.2237V71.6732C56.3406 74.0202 55.1684 75.3468 53.1077 75.3468C52.4837 75.3468 51.9733 75.3468 50.5931 74.612L47.7194 72.8365C47.0198 72.3875 46.5661 71.5711 46.5661 70.6935V57.0808C46.5661 56.2032 47.0009 55.3664 47.7194 54.9378L58.6472 48.1213C59.3467 47.6927 60.2542 47.6927 60.9348 48.1213L71.8627 54.9378C72.5622 55.3868 73.0159 56.2032 73.0159 57.0808V70.6935C73.0159 71.5711 72.5811 72.4079 71.8627 72.8365L60.9348 79.653C60.6134 79.8775 60.2164 80 59.8005 80ZM68.6297 66.5709C68.6297 64.0198 67.0416 63.3463 63.6763 62.8565C60.2731 62.3667 59.9328 62.1218 59.9328 61.2646C59.9328 60.5503 60.2164 59.6115 62.7309 59.6115C64.9808 59.6115 65.8127 60.1421 66.153 61.7748C66.1908 61.9381 66.3042 62.0401 66.4555 62.0401H67.8734C67.968 62.0401 68.0436 61.9993 68.1003 61.9381C68.157 61.8565 68.1948 61.7748 68.1759 61.6728C67.9491 58.8564 66.2286 57.5502 62.7309 57.5502C59.6114 57.5502 57.7586 58.9788 57.7586 61.3462C57.7586 63.9382 59.6114 64.6321 62.5986 64.9586C66.1719 65.3464 66.4555 65.8974 66.4555 66.6526C66.4555 67.9791 65.4723 68.5302 63.1658 68.5302C60.2731 68.5302 59.6303 67.7546 59.4223 66.2036C59.4034 66.0403 59.2711 65.9178 59.1009 65.9178H57.683C57.5128 65.9178 57.3616 66.0607 57.3616 66.2648C57.3616 68.2445 58.3636 70.6119 63.1469 70.6119C66.6445 70.6119 68.6297 69.1425 68.6297 66.5709ZM78.9336 56.3461C78.9336 57.591 77.9883 58.6115 76.835 58.6115C75.6817 58.6115 74.7364 57.591 74.7364 56.3461C74.7364 55.0603 75.7195 54.0807 76.835 54.0807C77.9694 54.0603 78.9336 55.0603 78.9336 56.3461ZM78.5933 56.3461C78.5933 55.2848 77.7992 54.448 76.8161 54.448C75.8519 54.448 75.0578 55.2848 75.0578 56.3461C75.0578 57.4073 75.8519 58.2645 76.8161 58.2645C77.7992 58.2441 78.5933 57.3869 78.5933 56.3461ZM77.7425 57.6114H77.2509C77.232 57.489 77.1564 56.8359 77.1564 56.8155C77.1186 56.6726 77.0808 56.591 76.9106 56.591H76.4947V57.6114H76.0409V55.0603H76.8539C77.1375 55.0603 77.6858 55.0603 77.6858 55.7338C77.6858 56.2032 77.4022 56.3052 77.232 56.3665C77.5534 56.3869 77.5723 56.6114 77.6291 56.9379C77.648 57.142 77.6858 57.489 77.7425 57.6114ZM77.2131 55.8154C77.2131 55.4685 76.9863 55.4685 76.8728 55.4685H76.4947V56.1828H76.8539C77.1564 56.1828 77.2131 55.9583 77.2131 55.8154ZM25.9583 26.7327C25.9583 26.1817 25.6936 25.6919 25.2588 25.4265L13.6692 18.2222C13.4802 18.0997 13.2533 18.0385 13.0264 18.0181H12.913C12.6861 18.0181 12.4781 18.0997 12.2702 18.2222L0.699531 25.4265C0.264688 25.6919 0 26.2021 0 26.7327L0.0189063 46.1212C0.0189063 46.3865 0.15125 46.6314 0.359219 46.7743C0.567188 46.9171 0.831875 46.9171 1.05875 46.7743L7.94063 42.5088C8.37547 42.2231 8.64016 41.7333 8.64016 41.2026V32.1411C8.64016 31.6105 8.90484 31.1002 9.33969 30.8349L12.2702 29.0185C12.497 28.8757 12.7239 28.8144 12.9697 28.8144C13.2155 28.8144 13.4613 28.8757 13.6692 29.0185L16.5997 30.8349C17.0345 31.1002 17.2992 31.6105 17.2992 32.1411V41.2026C17.2992 41.7333 17.5639 42.2435 17.9988 42.5088L24.8806 46.7743C25.0886 46.9171 25.3722 46.9171 25.5802 46.7743C25.7881 46.6518 25.9205 46.3865 25.9205 46.1212L25.9583 26.7327ZM89.332 5.56867V41.57C89.332 42.1006 89.0673 42.6109 88.6325 42.8762L77.043 50.1009C76.6081 50.3662 76.0788 50.3662 75.6439 50.1009L64.0544 42.8762C63.6195 42.6109 63.3548 42.1006 63.3548 41.57V27.1205C63.3548 26.5899 63.6195 26.0796 64.0544 25.8143L75.6439 18.5896C76.0788 18.3242 76.6081 18.3242 77.043 18.5896L79.9356 20.3855C80.257 20.5896 80.673 20.3243 80.673 19.9365V0.752166C80.673 0.180716 81.2402 -0.186644 81.7128 0.0990806L88.6136 4.2625C89.0484 4.50741 89.332 5.01763 89.332 5.56867ZM80.6352 31.8758C80.6352 31.7329 80.5595 31.6105 80.465 31.5492L76.4947 29.0593C76.3813 28.9981 76.2489 28.9981 76.1355 29.0593L72.1652 31.5492C72.0517 31.6105 71.995 31.7329 71.995 31.8758V36.8351C71.995 36.978 72.0706 37.1005 72.1652 37.1617L76.1355 39.6312C76.2489 39.6924 76.3813 39.6924 76.4758 39.6312L80.4461 37.1617C80.5595 37.1005 80.6162 36.978 80.6162 36.8351V31.8758H80.6352ZM120.3 31.7329C120.735 31.4676 121 30.9574 121 30.4267V26.9368C121 26.4062 120.735 25.896 120.3 25.6306L108.787 18.4059C108.352 18.1406 107.822 18.1406 107.388 18.4059L95.798 25.6306C95.3631 25.896 95.0984 26.4062 95.0984 26.9368V41.3863C95.0984 41.9374 95.3631 42.4272 95.798 42.6925L107.312 49.7744C107.728 50.0397 108.257 50.0397 108.692 49.7744L115.65 45.5906C116.122 45.3048 116.122 44.5701 115.65 44.2844L103.984 37.0596C103.757 36.9168 103.625 36.6719 103.625 36.4065V31.8758C103.625 31.6105 103.757 31.3655 103.984 31.2227L107.614 28.9573C107.822 28.8144 108.106 28.8144 108.314 28.9573L111.944 31.2227C112.152 31.3655 112.303 31.6105 112.303 31.8758V35.4269C112.303 35.9984 112.889 36.3657 113.362 36.08L120.3 31.7329ZM105.686 32.4472C105.61 32.5084 105.554 32.5901 105.554 32.6921V35.4677C105.554 35.5698 105.61 35.6718 105.686 35.7126L107.917 37.1005C107.993 37.1617 108.106 37.1617 108.182 37.1005L110.413 35.7126C110.488 35.6514 110.545 35.5698 110.545 35.4677V32.6921C110.545 32.5901 110.488 32.488 110.413 32.4472L108.182 31.0594C108.106 30.9982 107.993 30.9982 107.917 31.0594L105.686 32.4472ZM57.6263 41.3251V26.9572C57.6263 26.4266 57.3237 25.9164 56.8889 25.651L45.3372 18.4671C44.9402 18.2222 44.3919 18.1814 43.9381 18.4671L32.3864 25.651C31.9516 25.9164 31.6491 26.4062 31.6491 26.9572V41.3251C31.6491 41.8965 32.0083 42.3864 32.4053 42.6313L43.9759 49.8152C44.4297 50.1009 44.9591 50.0805 45.375 49.8152L56.9078 42.6313C57.2481 42.4272 57.4939 42.0802 57.5884 41.6721C57.6073 41.57 57.6263 41.4476 57.6263 41.3251ZM43.5789 15.8344L43.4277 15.9364H43.6356L43.5789 15.8344ZM57.9855 42.4068L57.9098 42.2639V42.4476L57.9855 42.4068Z" fill="#7FBD42"/>
</svg>
